<svg width="74" height="84" viewBox="0 0 74 84" fill="none" xmlns="http://www.w3.org/2000/svg">
<path d="M1.44999 61.7708C3.51249 57.7792 7.86665 55.1042 13.1333 55.7667C18.7022 56.4466 24.2259 57.4567 29.675 58.7917C38.05 60.8833 45.3875 64.9042 50.8125 68.575L52.6458 69.85L54.3125 71.0792L55.8042 72.2292L57.1125 73.2875L58.225 74.2292L59.1416 75.0292C62.6541 78.1583 60.2666 83.2708 56.2875 83.6458L55.8208 83.6667H20.0125C13.0042 83.6667 7.17915 80.1458 2.91249 74.8083C-0.312515 70.7792 -0.587514 65.7125 1.45415 61.7708H1.44999ZM66.1666 0.333344C69.8875 0.333344 71.4917 3.83334 72.2792 7.04168L72.5292 8.15834L72.6292 8.69168C73.2292 12.0125 73.55 16.3667 73.6792 20.8417C73.9292 29.6958 73.4208 40.0167 72.3167 44.9875C70.3917 53.6625 67.5667 59.6917 64.1833 63.325C60.7417 67.0333 56.0917 68.7042 51.8042 66.5583C48.5167 64.9167 46.5541 61.0125 45.4791 57.6833C43.909 52.8312 43.9338 47.6037 45.55 42.7667C46.425 40.1333 48 38.0083 49.7333 35.9875L51.2458 34.275C53.0875 32.2125 54.9333 30.15 56.1917 27.6375C58.025 23.9708 58.525 19.9583 58.6791 15.9292L58.7375 13.5125L58.775 11.1792L58.8 10.6042L58.8833 9.43751C59.2792 4.94584 60.8166 0.333344 66.1666 0.333344Z" fill="#6B184E"/>
</svg>
